# xmcd CD database file
#
# Track frame offsets:
#	150
#	7822
#	127954
#	213220
#
# Disc length: 3177 seconds
#
# Revision: 0
# Processed by: cddbd v1.5.2PL0 Copyright (c) Steve Scherf et al.
# Submitted via: CDex 1.51
#
DISCID=250c6704
DTITLE=DKV Trio - Live At The Hideout - 8/23/06
DYEAR=1900
DGENRE=Jazz
TTITLE0=Live At The Hideout - 8/23/06 - Track 1
TTITLE1=Live At The Hideout - 8/23/06 - Track 2
TTITLE2=Live At The Hideout - 8/23/06 - Track 3
TTITLE3=Live At The Hideout - 8/23/06 - Track 4
EXTD=
EXTT0=
EXTT1=
EXTT2=
EXTT3=
PLAYORDER=
